<svg width="120" height="89" viewBox="0 0 120 89" fill="none" xmlns="http://www.w3.org/2000/svg">
<path d="M1.65456 26.4449C-0.0425066 23.5356 1.95761 22.7073 3.1698 22.6568C8.52364 23.4649 19.3525 25.2327 19.8374 25.8388C20.4435 26.5964 19.9889 29.6269 17.7161 32.3543C15.4432 35.0817 10.746 33.2634 10.2914 33.2634C9.83685 33.2634 3.7759 30.0814 1.65456 26.4449Z" fill="white"/>
<path d="M52.112 2.80715C55.0213 -0.46577 56.1526 1.44343 56.3547 2.80715C59.7387 12.1006 68.7796 29.9299 77.8711 26.8994C86.9625 23.8689 90.2455 24.6266 90.7506 25.3842L91.3567 27.657L84.8412 31.4451L74.083 41.4457C71.5071 55.2849 66.1128 83.2966 65.1431 84.63C63.9309 86.2968 61.2034 86.1453 59.6882 84.63C58.173 83.1148 56.3547 80.8419 54.3849 74.0233C52.809 68.5685 48.8795 67.6088 47.1117 67.8109H44.2328L35.899 76.4477C35.1413 76.8013 32.8382 77.5084 29.6865 77.5084C25.7469 77.5084 23.1709 74.781 21.6557 73.5688C20.1405 72.3566 19.8374 70.2352 20.4435 67.8109C21.0496 65.3865 28.7773 57.9618 30.141 55.8405C31.5048 53.7191 33.02 45.3853 27.2621 45.5368C21.5042 45.6884 19.8374 44.3247 18.4737 43.4155C17.11 42.5064 13.928 38.4152 20.4435 30.6875C25.6559 24.5053 32.1109 24.8791 34.6868 25.8388L35.899 28.8692C38.0203 29.3743 42.8994 29.5965 45.445 26.4449C48.627 22.5053 48.7785 18.111 48.7785 14.929C48.7785 11.747 48.4754 6.89829 52.112 2.80715Z" fill="white"/>
<path d="M14.8371 79.0236C10.7157 78.9024 8.37212 82.7107 7.71551 84.63C7.51348 86.4988 7.50338 89.7515 9.07923 87.812C11.049 85.3876 13.3219 84.63 14.8371 84.63C16.3524 84.63 17.8676 84.63 20.7466 87.3574C23.0497 89.5394 22.8174 86.4483 22.4133 84.63L21.3527 82.2056C20.8981 81.1955 18.9586 79.1449 14.8371 79.0236Z" fill="white"/>
<path d="M107.721 58.1133C107.964 57.2648 109.439 57.4567 110.146 57.6588C112.873 58.7194 118.267 61.2347 118.025 62.8106C117.722 64.7804 115.601 63.4167 115.146 63.1136C114.691 62.8106 112.419 61.1438 110.146 60.8408C107.873 60.5377 107.418 59.174 107.721 58.1133Z" fill="white"/>
<path d="M96.357 43.567C94.175 43.4458 92.9224 41.3952 92.5689 40.385C91.5991 37.1121 93.276 36.9 94.2356 37.203L95.2963 38.1122C97.5187 38.3142 101.903 39.1425 101.66 40.8396C101.357 42.9609 99.0844 43.7186 96.357 43.567Z" fill="white"/>
<path d="M95.7509 23.1113C94.8178 21.1415 96.5085 19.6263 97.2661 19.4747C99.0339 19.7778 102.357 20.8688 101.509 22.8083C100.448 25.2327 96.9711 25.6872 95.7509 23.1113Z" fill="white"/>
<path d="M33.7326 25.1951C28.8838 25.0739 24.1361 30.8015 22.3683 33.6804C21.4086 35.2967 19.7621 39.105 20.8531 41.4082C22.2168 44.2872 28.1262 45.8024 30.7021 45.6509C33.278 45.4993 34.9448 47.9237 34.9448 50.1966C34.9448 52.4694 34.4902 56.5606 32.0658 58.5304C29.6414 60.5002 25.0957 65.5005 24.0351 68.531C22.9744 71.5615 25.5503 74.5919 29.4899 76.4102C33.4295 78.2285 38.4298 78.2285 42.9756 72.3191C47.5213 66.4096 49.7941 67.3188 52.37 67.7734C54.9459 68.2279 58.1279 73.2282 58.5825 76.4102C59.0371 79.5922 63.2798 86.2593 66.4618 86.1077C69.6438 85.9562 73.2803 81.1075 75.7047 77.9255C78.1081 74.771 77.6745 72.1675 77.826 68.531C77.9776 64.8944 78.4143 63.1156 83.1293 62.0154C87.6751 60.9548 99.6455 63.5307 104.646 63.0761C109.646 62.6215 107.07 59.1365 105.252 56.5606C103.434 53.9847 97.6757 51.5603 91.9178 50.1966C86.1599 48.8329 82.9779 45.3478 81.9172 41.4082C80.8565 37.4686 86.766 35.3472 90.4025 33.6804C94.0391 32.0136 95.5543 26.1043 93.5845 25.1951C91.6147 24.2859 89.948 25.1951 84.3416 26.1043C78.7352 27.0135 74.9471 27.3164 70.5529 23.9829C66.1587 20.6495 63.8859 12.9218 62.3706 7.76998L62.3706 7.76986C60.8554 2.61804 59.4917 0.496709 56.6127 1.55738C53.7337 2.61804 52.5216 9.58814 52.37 12.0125C52.2185 14.4369 52.2185 21.7101 49.7941 25.1951C47.3697 28.6801 44.4908 28.6802 42.2179 27.3164C39.9451 25.9527 39.7935 25.3466 33.7326 25.1951Z" fill="#27FF02"/>
<path d="M14.7921 18.5281C11.3979 17.8008 6.30673 18.8311 4.18539 19.4372C3.52879 19.5888 2.06406 20.2555 1.45796 21.7101C0.700345 23.5284 4.18539 26.5589 5.54911 27.771C6.91283 28.9832 12.8223 33.0744 16.4588 31.1046C20.0954 29.1348 20.2469 25.1951 20.0954 23.9829C19.9439 22.7708 19.0347 19.4372 14.7921 18.5281Z" fill="#27FF02"/>
<path d="M96.7665 22.7708C95.7968 21.4373 96.8675 19.8918 97.5241 19.2857C98.2818 18.3161 101.009 18.5281 101.918 19.2857C102.827 20.0433 102.676 22.7708 101.464 23.5284C100.252 24.286 97.9787 24.4375 96.7665 22.7708Z" fill="#27FF02"/>
<path d="M100.706 42.0143C98.0393 43.1053 95.7564 41.7618 94.9482 40.9536C93.736 39.893 93.433 38.0747 93.433 36.711C93.433 35.3472 94.6452 35.9533 96.1604 36.711C97.6757 37.4686 99.4939 37.4686 101.918 36.2564C104.343 35.0442 104.04 37.4686 104.04 37.7716C104.04 38.0747 104.04 40.6506 100.706 42.0143Z" fill="#27FF02"/>
<path d="M113.131 57.7728C110.343 56.4394 109.242 57.3182 109.04 57.9243C108.585 58.4822 109.04 59.288 109.343 59.5911C109.646 59.8941 111.161 60.4665 112.677 60.8033C114.192 61.14 115.707 62.3185 116.01 62.47C116.313 62.6215 118.434 64.4398 118.889 63.0761C119.344 61.7124 118.283 60.9548 117.828 60.5002C117.374 60.0456 116.616 59.4395 113.131 57.7728Z" fill="#27FF02"/>
<path d="M16.4588 79.2892C13.6708 79.4104 11.8626 82.3702 11.307 83.8349C9.94332 90.3504 12.5192 87.4715 13.1253 87.0169C13.7314 86.5623 15.8528 84.2895 18.4287 84.2895C21.0046 84.2895 22.0652 86.1077 23.5805 87.0169C25.0957 87.926 25.7018 88.2291 25.8533 87.0169C26.0049 85.8047 25.5503 83.2288 23.5805 81.259C21.6107 79.2892 19.9439 79.1376 16.4588 79.2892Z" fill="#27FF02"/>
<path d="M33.7326 25.1951C28.8838 25.0739 24.1361 30.8015 22.3683 33.6804C21.4086 35.2967 19.7621 39.105 20.8531 41.4082C22.2168 44.2872 28.1262 45.8024 30.7021 45.6509C33.278 45.4993 34.9448 47.9237 34.9448 50.1966C34.9448 52.4694 34.4902 56.5606 32.0658 58.5304C29.6414 60.5002 25.0957 65.5005 24.0351 68.531C22.9744 71.5615 25.5503 74.5919 29.4899 76.4102C33.4295 78.2285 38.4298 78.2285 42.9756 72.3191C47.5213 66.4096 49.7941 67.3188 52.37 67.7734C54.9459 68.2279 58.1279 73.2282 58.5825 76.4102C59.0371 79.5922 63.2798 86.2593 66.4618 86.1077C69.6438 85.9562 73.2803 81.1075 75.7047 77.9255C78.1081 74.771 77.6745 72.1675 77.826 68.531C77.9776 64.8944 78.4143 63.1156 83.1293 62.0154C87.6751 60.9548 99.6455 63.5307 104.646 63.0761C109.646 62.6215 107.07 59.1365 105.252 56.5606C103.434 53.9847 97.6757 51.5603 91.9178 50.1966C86.1599 48.8329 82.9779 45.3478 81.9172 41.4082C80.8565 37.4686 86.766 35.3472 90.4025 33.6804C94.0391 32.0136 95.5543 26.1043 93.5845 25.1951C91.6147 24.2859 89.948 25.1951 84.3416 26.1043C78.7352 27.0135 74.9471 27.3164 70.5529 23.9829C66.1587 20.6495 63.8859 12.9218 62.3706 7.76998L62.3706 7.76986C60.8554 2.61804 59.4917 0.496709 56.6127 1.55738C53.7337 2.61804 52.5216 9.58814 52.37 12.0125C52.2185 14.4369 52.2185 21.7101 49.7941 25.1951C47.3697 28.6801 44.4908 28.6802 42.2179 27.3164C39.9451 25.9527 39.7935 25.3466 33.7326 25.1951Z" stroke="#27FF02"/>
<path d="M14.7921 18.5281C11.3979 17.8008 6.30673 18.8311 4.18539 19.4372C3.52879 19.5888 2.06406 20.2555 1.45796 21.7101C0.700345 23.5284 4.18539 26.5589 5.54911 27.771C6.91283 28.9832 12.8223 33.0744 16.4588 31.1046C20.0954 29.1348 20.2469 25.1951 20.0954 23.9829C19.9439 22.7708 19.0347 19.4372 14.7921 18.5281Z" stroke="#27FF02"/>
<path d="M96.7665 22.7708C95.7968 21.4373 96.8675 19.8918 97.5241 19.2857C98.2818 18.3161 101.009 18.5281 101.918 19.2857C102.827 20.0433 102.676 22.7708 101.464 23.5284C100.252 24.286 97.9787 24.4375 96.7665 22.7708Z" stroke="#27FF02"/>
<path d="M100.706 42.0143C98.0393 43.1053 95.7564 41.7618 94.9482 40.9536C93.736 39.893 93.433 38.0747 93.433 36.711C93.433 35.3472 94.6452 35.9533 96.1604 36.711C97.6757 37.4686 99.4939 37.4686 101.918 36.2564C104.343 35.0442 104.04 37.4686 104.04 37.7716C104.04 38.0747 104.04 40.6506 100.706 42.0143Z" stroke="#27FF02"/>
<path d="M113.131 57.7728C110.343 56.4394 109.242 57.3182 109.04 57.9243C108.585 58.4822 109.04 59.288 109.343 59.5911C109.646 59.8941 111.161 60.4665 112.677 60.8033C114.192 61.14 115.707 62.3185 116.01 62.47C116.313 62.6215 118.434 64.4398 118.889 63.0761C119.344 61.7124 118.283 60.9548 117.828 60.5002C117.374 60.0456 116.616 59.4395 113.131 57.7728Z" stroke="#27FF02"/>
<path d="M16.4588 79.2892C13.6708 79.4104 11.8626 82.3702 11.307 83.8349C9.94332 90.3504 12.5192 87.4715 13.1253 87.0169C13.7314 86.5623 15.8528 84.2895 18.4287 84.2895C21.0046 84.2895 22.0652 86.1077 23.5805 87.0169C25.0957 87.926 25.7018 88.2291 25.8533 87.0169C26.0049 85.8047 25.5503 83.2288 23.5805 81.259C21.6107 79.2892 19.9439 79.1376 16.4588 79.2892Z" stroke="#27FF02"/>
<g filter="url(#filter0_d_39_17328)">
<path d="M38.4531 39.8047L42.5391 32.625H45.2812V44H42.5391V36.8281L38.4531 44H35.7109V32.625H38.4531V39.8047ZM52.2344 32.625V44H49.4922V32.625H52.2344ZM55.6562 32.625V34.7422H46.1484V32.625H55.6562ZM57.4219 37.8672H59.8281C60.6406 37.8672 61.3359 37.9974 61.9141 38.2578C62.4974 38.513 62.9453 38.875 63.2578 39.3438C63.5703 39.8073 63.7266 40.349 63.7266 40.9688C63.7266 41.4115 63.638 41.8203 63.4609 42.1953C63.2839 42.5651 63.026 42.8854 62.6875 43.1562C62.3542 43.4219 61.9453 43.6302 61.4609 43.7812C60.9818 43.9271 60.4375 44 59.8281 44H55.8438V35.5469H58.4844V41.9844H59.8281C60.1302 41.9844 60.3724 41.9375 60.5547 41.8438C60.7422 41.75 60.8802 41.625 60.9688 41.4688C61.0573 41.3125 61.1016 41.1406 61.1016 40.9531C61.1016 40.7448 61.0573 40.5625 60.9688 40.4062C60.8802 40.2448 60.7422 40.1198 60.5547 40.0312C60.3724 39.9375 60.1302 39.8906 59.8281 39.8906H57.4219V37.8672ZM67.625 35.5469V44H64.9844V35.5469H67.625ZM43.5312 48.625V50.7422H38.5859V60H35.8516V48.625H43.5312ZM52.6172 57.8906V60H46.5547V57.8906H52.6172ZM47.5312 48.625V60H44.7891V48.625H47.5312ZM51.8359 53.1406V55.1797H46.5547V53.1406H51.8359ZM52.6406 48.625V50.7422H46.5547V48.625H52.6406ZM58.2812 56.1406H55.4531V54.0234H58.2812C58.6667 54.0234 58.9792 53.9583 59.2188 53.8281C59.4583 53.6979 59.6328 53.5182 59.7422 53.2891C59.8568 53.0547 59.9141 52.7917 59.9141 52.5C59.9141 52.1875 59.8568 51.8984 59.7422 51.6328C59.6328 51.3672 59.4583 51.1536 59.2188 50.9922C58.9792 50.8255 58.6667 50.7422 58.2812 50.7422H56.4844V60H53.7422V48.625H58.2812C59.1927 48.625 59.9766 48.7917 60.6328 49.125C61.2943 49.4583 61.8021 49.9167 62.1562 50.5C62.5104 51.0781 62.6875 51.7396 62.6875 52.4844C62.6875 53.2188 62.5104 53.8594 62.1562 54.4062C61.8021 54.9531 61.2943 55.3802 60.6328 55.6875C59.9766 55.9896 59.1927 56.1406 58.2812 56.1406ZM73.7891 54.0859V54.5469C73.7891 55.4167 73.6667 56.1979 73.4219 56.8906C73.1823 57.5781 72.8411 58.1667 72.3984 58.6562C71.9557 59.1406 71.4323 59.513 70.8281 59.7734C70.224 60.0286 69.5573 60.1562 68.8281 60.1562C68.0938 60.1562 67.4219 60.0286 66.8125 59.7734C66.2083 59.513 65.6823 59.1406 65.2344 58.6562C64.7917 58.1667 64.4479 57.5781 64.2031 56.8906C63.9635 56.1979 63.8438 55.4167 63.8438 54.5469V54.0859C63.8438 53.2161 63.9635 52.4349 64.2031 51.7422C64.4479 51.0495 64.7891 50.4609 65.2266 49.9766C65.6693 49.487 66.1927 49.1146 66.7969 48.8594C67.4062 48.599 68.0781 48.4688 68.8125 48.4688C69.5417 48.4688 70.2083 48.599 70.8125 48.8594C71.4219 49.1146 71.9479 49.487 72.3906 49.9766C72.8333 50.4609 73.1771 51.0495 73.4219 51.7422C73.6667 52.4349 73.7891 53.2161 73.7891 54.0859ZM71.0078 54.5469V54.0703C71.0078 53.5078 70.9583 53.013 70.8594 52.5859C70.7656 52.1536 70.625 51.7917 70.4375 51.5C70.25 51.2083 70.0182 50.9896 69.7422 50.8438C69.4714 50.6927 69.1615 50.6172 68.8125 50.6172C68.4479 50.6172 68.1302 50.6927 67.8594 50.8438C67.5885 50.9896 67.362 51.2083 67.1797 51.5C66.9974 51.7917 66.8594 52.1536 66.7656 52.5859C66.6771 53.013 66.6328 53.5078 66.6328 54.0703V54.5469C66.6328 55.1042 66.6771 55.599 66.7656 56.0312C66.8594 56.4583 66.9974 56.8203 67.1797 57.1172C67.3672 57.4141 67.5964 57.638 67.8672 57.7891C68.1432 57.9401 68.4635 58.0156 68.8281 58.0156C69.1771 58.0156 69.487 57.9401 69.7578 57.7891C70.0286 57.638 70.2552 57.4141 70.4375 57.1172C70.625 56.8203 70.7656 56.4583 70.8594 56.0312C70.9583 55.599 71.0078 55.1042 71.0078 54.5469ZM77.7969 55.8047L81.8828 48.625H84.625V60H81.8828V52.8281L77.7969 60H75.0547V48.625H77.7969V55.8047ZM80.9453 45.5625H82.75C82.75 46.0312 82.6302 46.4479 82.3906 46.8125C82.1562 47.1719 81.8229 47.4531 81.3906 47.6562C80.9583 47.8594 80.4479 47.9609 79.8594 47.9609C78.9688 47.9609 78.263 47.7396 77.7422 47.2969C77.2214 46.849 76.9609 46.2708 76.9609 45.5625H78.7578C78.7578 45.8177 78.8411 46.0469 79.0078 46.25C79.1745 46.4531 79.4583 46.5547 79.8594 46.5547C80.2604 46.5547 80.5417 46.4531 80.7031 46.25C80.8646 46.0469 80.9453 45.8177 80.9453 45.5625Z" fill="black"/>
</g>
<defs>
<filter id="filter0_d_39_17328" x="35.7109" y="32.625" width="50.9141" height="27.5312" filterUnits="userSpaceOnUse" color-interpolation-filters="sRGB">
<feFlood flood-opacity="0" result="BackgroundImageFix"/>
<feColorMatrix in="SourceAlpha" type="matrix" values="0 0 0 0 0 0 0 0 0 0 0 0 0 0 0 0 0 0 127 0" result="hardAlpha"/>
<feOffset dx="2"/>
<feComposite in2="hardAlpha" operator="out"/>
<feColorMatrix type="matrix" values="0 0 0 0 0 0 0 0 0 0 0 0 0 0 0 0 0 0 0.25 0"/>
<feBlend mode="normal" in2="BackgroundImageFix" result="effect1_dropShadow_39_17328"/>
<feBlend mode="normal" in="SourceGraphic" in2="effect1_dropShadow_39_17328" result="shape"/>
</filter>
</defs>
</svg>
