<svg width="18" height="20" viewBox="0 0 18 20" fill="none" xmlns="http://www.w3.org/2000/svg">
<path fill-rule="evenodd" clip-rule="evenodd" d="M5.5 5C5.5 3.067 7.067 1.5 9 1.5C10.933 1.5 12.5 3.067 12.5 5C12.5 6.933 10.933 8.5 9 8.5C7.067 8.5 5.5 6.933 5.5 5ZM9 0.5C6.51472 0.5 4.5 2.51472 4.5 5C4.5 7.48528 6.51472 9.5 9 9.5C11.4853 9.5 13.5 7.48528 13.5 5C13.5 2.51472 11.4853 0.5 9 0.5ZM9 11.5C5.82673 11.5 3.19545 12.6136 1.80719 13.3449C0.945611 13.7987 0.5 14.7218 0.5 15.655C0.5 16.4085 0.783177 17.3326 1.22525 18.0702C1.64998 18.7789 2.33814 19.5 3.23333 19.5H14.7667C15.6619 19.5 16.35 18.7789 16.7747 18.0702C17.2168 17.3326 17.5 16.4085 17.5 15.655C17.5 14.7218 17.0544 13.7987 16.1928 13.3448C14.8045 12.6136 12.1733 11.5 9 11.5ZM2.27324 14.2296C3.58482 13.5387 6.05094 12.5 9 12.5C11.9491 12.5 14.4152 13.5387 15.7268 14.2296C16.2001 14.4789 16.5 15.02 16.5 15.655C16.5 16.1966 16.2832 16.945 15.917 17.5561C15.5334 18.1962 15.1049 18.5 14.7667 18.5H3.23333C2.89508 18.5 2.46658 18.1962 2.083 17.5561C1.71677 16.945 1.5 16.1966 1.5 15.655C1.5 15.0201 1.79993 14.4789 2.27324 14.2296Z" fill="#25C20C"/>
</svg>
